<svg width="512" height="333" viewBox="0 0 512 333" fill="none" xmlns="http://www.w3.org/2000/svg">
<mask id="mask0_19_3395" style="mask-type:luminance" maskUnits="userSpaceOnUse" x="0" y="116" width="302" height="217">
<path d="M0 116.964H301.606V332.195H0V116.964Z" fill="white"/>
</mask>
<g mask="url(#mask0_19_3395)">
<path d="M14.5804 126.959L136.113 117.384V257.176C136.113 265.793 139.355 274.176 145.436 280.273C151.466 286.32 159.496 289.646 167.996 289.646C168.835 289.646 169.692 289.613 170.532 289.546L297.575 279.517V316.389C297.575 325.56 289.764 332.8 280.626 332.078L57.7846 314.49C51.2502 313.987 44.699 315.398 38.9709 318.589L14.5804 332.128V311.097C6.3998 310.442 0.100586 303.622 0.100586 295.408V142.631C0.100586 134.434 6.3998 127.614 14.5804 126.959Z" fill="#000091"/>
</g>
<mask id="mask1_19_3395" style="mask-type:luminance" maskUnits="userSpaceOnUse" x="146" y="0" width="366" height="281">
<path d="M146.797 0H512V280.374H146.797V0Z" fill="white"/>
</mask>
<g mask="url(#mask1_19_3395)">
<path d="M264.484 164.468C278.627 164.468 290.084 153.012 290.084 138.868C290.084 124.724 278.627 113.268 264.484 113.268C250.34 113.268 238.884 124.724 238.884 138.868C238.884 153.012 250.34 164.468 264.484 164.468ZM330.399 164.468C344.526 164.468 355.999 153.012 355.999 138.868C355.999 124.724 344.526 113.268 330.399 113.268C316.255 113.268 304.799 124.724 304.799 138.868C304.799 153.012 316.255 164.468 330.399 164.468ZM396.297 164.468C410.441 164.468 421.914 153.012 421.914 138.868C421.914 124.724 410.441 113.268 396.297 113.268C382.17 113.268 370.697 124.724 370.697 138.868C370.697 153.012 382.17 164.468 396.297 164.468ZM169.525 0.873449L494.262 26.4902C504.257 27.2797 511.95 35.6115 511.95 45.6231V232.113C511.95 242.125 504.257 250.457 494.262 251.246V276.913L463.287 259.712C457.088 256.269 450 254.74 442.911 255.294L169.525 276.863C158.371 277.736 148.83 268.918 148.83 257.73V20.0063C148.83 8.81885 158.371 -4.21769e-05 169.525 0.873449Z" fill="#E1000F"/>
</g>
</svg>
