<svg width="397" height="104" viewBox="0 0 397 104" fill="none" xmlns="http://www.w3.org/2000/svg">
<mask id="mask0_19_3384" style="mask-type:luminance" maskUnits="userSpaceOnUse" x="0" y="36" width="95" height="68">
<path d="M0.817871 36.6667H94.3335V103.401H0.817871V36.6667Z" fill="white"/>
</mask>
<g mask="url(#mask0_19_3384)">
<path d="M5.3387 39.7656L43.021 36.7969V80.1406C43.021 82.8125 44.0262 85.4115 45.9116 87.3021C47.7814 89.1771 50.271 90.2083 52.9064 90.2083C53.1668 90.2083 53.4325 90.1979 53.6929 90.1771L93.0835 87.0677V98.5C93.0835 101.344 90.6616 103.589 87.8283 103.365L18.7345 97.9115C16.7085 97.7552 14.6772 98.1927 12.9012 99.1823L5.3387 103.38V96.8594C2.80225 96.6563 0.849121 94.5417 0.849121 91.9948V44.625C0.849121 42.0833 2.80225 39.9687 5.3387 39.7656Z" fill="#000091"/>
</g>
<mask id="mask1_19_3384" style="mask-type:luminance" maskUnits="userSpaceOnUse" x="46" y="0" width="114" height="88">
<path d="M46.3335 0.401062H159.568V87.3334H46.3335V0.401062Z" fill="white"/>
</mask>
<g mask="url(#mask1_19_3384)">
<path d="M82.8232 51.3959C87.2087 51.3959 90.7607 47.8438 90.7607 43.4584C90.7607 39.0729 87.2087 35.5209 82.8232 35.5209C78.4378 35.5209 74.8857 39.0729 74.8857 43.4584C74.8857 47.8438 78.4378 51.3959 82.8232 51.3959ZM103.261 51.3959C107.641 51.3959 111.198 47.8438 111.198 43.4584C111.198 39.0729 107.641 35.5209 103.261 35.5209C98.8753 35.5209 95.3232 39.0729 95.3232 43.4584C95.3232 47.8438 98.8753 51.3959 103.261 51.3959ZM123.693 51.3959C128.078 51.3959 131.636 47.8438 131.636 43.4584C131.636 39.0729 128.078 35.5209 123.693 35.5209C119.313 35.5209 115.756 39.0729 115.756 43.4584C115.756 47.8438 119.313 51.3959 123.693 51.3959ZM53.3805 0.671901L154.068 8.61461C157.167 8.8594 159.552 11.4427 159.552 14.5469V72.3698C159.552 75.474 157.167 78.0573 154.068 78.3021V86.2604L144.464 80.9271C142.542 79.8594 140.344 79.3854 138.146 79.5573L53.3805 86.2448C49.9222 86.5157 46.9639 83.7813 46.9639 80.3125V6.60419C46.9639 3.13544 49.9222 0.401067 53.3805 0.671901Z" fill="#E1000F"/>
</g>
<path d="M191.974 47.3832C191.974 47.7165 191.912 48.0134 191.787 48.279C191.662 48.555 191.495 48.7894 191.287 48.9873C191.063 49.18 190.808 49.3311 190.516 49.4457C190.235 49.5707 189.933 49.6332 189.599 49.6332C188.75 49.6332 187.953 49.4665 187.203 49.1332C186.464 48.7998 185.813 48.3519 185.245 47.7998C184.688 47.2269 184.245 46.5707 183.912 45.8207C183.589 45.0811 183.433 44.2894 183.433 43.4248V31.2582C183.433 30.4561 183.584 29.6957 183.891 28.9873C184.193 28.279 184.604 27.654 185.12 27.1123C185.631 26.5707 186.229 26.1332 186.912 25.7998C187.604 25.4665 188.349 25.279 189.141 25.2373C189.693 25.1957 190.214 25.253 190.703 25.404C191.089 25.5863 191.396 25.8519 191.62 26.1957C191.854 26.529 191.974 26.9248 191.974 27.3832C191.974 27.7165 191.912 28.0394 191.787 28.3415C191.662 28.6488 191.495 28.9144 191.287 29.1332C191.063 29.3832 190.808 29.5811 190.516 29.7165C190.224 29.8571 189.912 29.9248 189.578 29.9248C189.172 29.9248 188.839 30.0655 188.578 30.3415C188.313 30.6227 188.183 30.9613 188.183 31.3623V43.4248C188.183 43.7582 188.266 44.0446 188.433 44.279C188.61 44.503 188.849 44.6644 189.141 44.7582C189.875 44.7998 190.526 45.0602 191.099 45.5498C191.36 45.7998 191.568 46.0759 191.724 46.3832C191.891 46.6852 191.974 47.0186 191.974 47.3832Z" fill="black"/>
<path d="M212.212 41.1957C212.42 41.4457 212.566 41.7165 212.649 42.0082C212.743 42.2998 212.78 42.5915 212.754 42.8832C212.712 43.1748 212.613 43.4613 212.462 43.7373C212.321 44.0186 212.118 44.253 211.858 44.4457C211.592 44.654 211.316 44.7894 211.024 44.8623C210.733 44.9457 210.441 44.9665 210.149 44.9248C209.55 44.8676 209.045 44.5863 208.629 44.0707L205.545 39.6123C205.42 39.628 205.295 39.6436 205.17 39.654C205.056 39.654 204.941 39.654 204.816 39.654H202.295V42.5915C202.295 42.9248 202.233 43.2373 202.108 43.529C201.993 43.8103 201.837 44.0498 201.629 44.2582C201.181 44.7321 200.618 44.9665 199.941 44.9665C199.243 44.9665 198.675 44.7321 198.233 44.2582C198.024 44.0498 197.858 43.8103 197.733 43.529C197.618 43.2373 197.566 42.9248 197.566 42.5915V27.654C197.55 27.529 197.535 27.3988 197.524 27.2582C197.509 27.1228 197.488 26.9873 197.462 26.8623C197.42 26.7269 197.384 26.5915 197.358 26.4665C197.342 26.3415 197.337 26.2269 197.337 26.1123C197.337 25.9613 197.358 25.8311 197.399 25.7165C197.451 25.5915 197.545 25.4821 197.67 25.3832C197.889 25.2165 198.3 25.1332 198.899 25.1332H204.816C205.858 25.1332 206.842 25.3207 207.774 25.6957C208.717 26.0707 209.55 26.5863 210.274 27.2373C210.993 27.904 211.566 28.6905 211.983 29.5915C212.41 30.4821 212.629 31.4457 212.629 32.4873C212.629 33.5186 212.41 34.4665 211.983 35.3415C211.566 36.2165 210.993 36.9769 210.274 37.6123C210.175 37.6853 210.076 37.7582 209.983 37.8415C209.899 37.9144 209.816 37.9821 209.733 38.0498L212.212 41.1957ZM202.212 35.5707H204.816C205.243 35.5707 205.655 35.503 206.045 35.3623C206.431 35.2113 206.774 35.0082 207.066 34.7582C207.358 34.4978 207.576 34.1853 207.733 33.8207C207.884 33.4613 207.962 33.0655 207.962 32.6332C207.962 32.1905 207.884 31.7738 207.733 31.3832C207.576 30.9978 207.358 30.6488 207.066 30.3415C206.774 30.0498 206.431 29.8155 206.045 29.6332C205.655 29.4561 205.243 29.3623 204.816 29.3623H202.212V35.5707Z" fill="black"/>
<path d="M233.238 42.5916C233.238 42.9249 233.176 43.2374 233.051 43.5291C232.926 43.8207 232.749 44.0707 232.53 44.2791C232.306 44.4874 232.04 44.6541 231.738 44.7791C231.447 44.9041 231.134 44.9666 230.801 44.9666H221.155C220.79 44.9666 220.452 44.9041 220.134 44.7791C219.827 44.6541 219.572 44.4822 219.363 44.2582C218.889 43.7895 218.655 43.1853 218.655 42.4457V27.8624C218.655 27.7374 218.639 27.6072 218.613 27.4666C218.598 27.3311 218.577 27.1957 218.551 27.0707C218.467 26.8207 218.426 26.5603 218.426 26.2791C218.426 26.128 218.447 25.9978 218.488 25.8832C218.53 25.7582 218.613 25.6488 218.738 25.5499C218.848 25.4666 218.999 25.4041 219.197 25.3624C219.389 25.3103 219.639 25.2791 219.947 25.2791H230.822C231.332 25.2791 231.759 25.3936 232.092 25.6124C232.436 25.8363 232.707 26.1124 232.905 26.4457C233.072 26.7947 233.155 27.1645 233.155 27.5499C233.165 27.9405 233.082 28.2999 232.905 28.6332C232.738 28.9666 232.478 29.2478 232.134 29.4666C231.785 29.6905 231.353 29.7999 230.842 29.7999H223.384V32.9457H228.926C229.285 32.9457 229.618 33.0395 229.926 33.2166C230.243 33.3832 230.509 33.6072 230.717 33.8832C230.926 34.1645 231.056 34.4822 231.113 34.8416C231.165 35.2061 231.118 35.5655 230.967 35.9249C230.801 36.3728 230.535 36.7166 230.176 36.9666C229.811 37.2061 229.395 37.3207 228.926 37.3207H223.384V40.1957H230.78C231.488 40.1957 232.072 40.4197 232.53 40.8624C232.749 41.0707 232.926 41.3207 233.051 41.6124C233.176 41.9041 233.238 42.2322 233.238 42.5916Z" fill="black"/>
<path d="M237.635 47.3207C237.635 47.0967 237.667 46.8519 237.739 46.5915C237.807 46.3259 237.927 46.0759 238.094 45.8415C238.271 45.6019 238.5 45.3936 238.781 45.2165C239.073 45.0342 239.432 44.9092 239.864 44.8415C240.239 44.8415 240.594 44.7061 240.927 44.4248C241.078 44.2998 241.203 44.154 241.302 43.9873C241.396 43.8103 241.448 43.6123 241.448 43.404V31.2998C241.448 30.9248 241.307 30.5915 241.031 30.2998C240.75 30.0394 240.417 29.904 240.031 29.904C239.698 29.904 239.385 29.8363 239.094 29.6957C238.802 29.5446 238.552 29.3519 238.344 29.1123C238.12 28.878 237.948 28.6123 237.823 28.3207C237.698 28.0186 237.635 27.6957 237.635 27.3623C237.635 26.904 237.745 26.503 237.969 26.154C238.203 25.8103 238.51 25.5446 238.885 25.3623C239.396 25.2113 239.989 25.1644 240.656 25.2165C241.323 25.2582 241.995 25.4457 242.677 25.779C244.062 26.4613 245.073 27.5238 245.698 28.9665C245.849 29.3155 245.958 29.6748 246.031 30.0498C246.114 30.4248 246.161 30.8155 246.177 31.2165V43.404C246.177 44.253 246.01 45.0498 245.677 45.7998C245.354 46.5498 244.917 47.2009 244.364 47.7582C243.807 48.3259 243.156 48.779 242.406 49.1123C241.656 49.4457 240.854 49.6123 240.01 49.6123C239.354 49.6123 238.802 49.3884 238.344 48.9457C238.12 48.7478 237.948 48.5134 237.823 48.2373C237.698 47.9561 237.635 47.654 237.635 47.3207Z" fill="black"/>
<path d="M262.991 31.4665C262.824 31.4665 262.657 31.4613 262.491 31.4457C262.334 31.4353 262.178 31.3936 262.011 31.3207C261.688 31.2113 261.329 30.9822 260.928 30.6332C260.511 30.2478 260.121 29.9405 259.761 29.7165C259.412 29.4822 259.037 29.3624 258.636 29.3624C258.412 29.3624 258.188 29.3936 257.97 29.4457C257.746 29.4874 257.543 29.5655 257.366 29.6749C257.183 29.7738 257.037 29.904 256.928 30.0707C256.813 30.2374 256.761 30.4249 256.761 30.6332C256.761 30.9249 256.886 31.1957 257.136 31.4457C257.397 31.6853 257.746 31.9144 258.178 32.1332C258.386 32.2582 258.605 32.3832 258.845 32.5082C259.095 32.6332 259.355 32.753 259.636 32.8624C260.188 33.128 260.746 33.404 261.303 33.6957C261.871 33.9769 262.433 34.2894 262.991 34.6332C263.543 34.9665 264.032 35.3572 264.449 35.7999C264.876 36.2478 265.225 36.7322 265.491 37.2582C265.741 37.8155 265.866 38.4353 265.866 39.1124C265.866 40.102 265.636 40.9613 265.178 41.6957C264.73 42.4353 264.157 43.0447 263.449 43.529C262.741 44.0186 261.959 44.3832 261.116 44.6332C260.267 44.8676 259.438 44.9874 258.636 44.9874C257.47 44.9874 256.459 44.8467 255.616 44.5707C254.767 44.2947 254.058 43.9405 253.491 43.5082C252.933 43.0915 252.501 42.628 252.199 42.1124C251.907 41.5863 251.741 41.0811 251.699 40.5915C251.683 40.2894 251.72 39.9978 251.803 39.7165C251.886 39.4405 252.017 39.1957 252.199 38.9874C252.376 38.7947 252.595 38.6332 252.845 38.5082C253.105 38.3832 253.407 38.3207 253.741 38.3207C254.084 38.3207 254.428 38.4144 254.761 38.5915C255.105 38.7582 255.475 39.003 255.866 39.3207C256.001 39.503 256.178 39.6644 256.386 39.7999C256.605 39.9405 256.845 40.0655 257.095 40.1749C257.605 40.4144 258.121 40.529 258.636 40.529C258.897 40.529 259.157 40.503 259.407 40.4457C259.668 40.378 259.897 40.279 260.095 40.154C260.303 40.0447 260.47 39.904 260.595 39.7374C260.73 39.5603 260.803 39.3415 260.803 39.0915C260.803 38.8415 260.678 38.6124 260.428 38.404C260.178 38.1957 259.855 37.9822 259.47 37.7582C259.261 37.6644 259.037 37.5655 258.803 37.4665C258.579 37.3572 258.345 37.2478 258.095 37.1332C257.563 36.9144 257.032 36.6697 256.491 36.404C255.959 36.128 255.438 35.8207 254.928 35.4874C254.397 35.154 253.933 34.7738 253.532 34.3415C253.142 33.8988 252.824 33.3988 252.574 32.8415C252.324 32.2999 252.199 31.6644 252.199 30.9249C252.199 30.0915 252.355 29.3311 252.678 28.6332C253.011 27.9405 253.47 27.3519 254.053 26.8624C254.647 26.3624 255.366 25.9822 256.199 25.7165C257.032 25.4405 257.97 25.2999 259.011 25.2999C259.428 25.2999 259.871 25.3519 260.345 25.4457C260.829 25.5447 261.303 25.6853 261.761 25.8624C262.23 26.0447 262.678 26.2686 263.095 26.529C263.522 26.779 263.897 27.0603 264.22 27.3624C264.537 27.6853 264.793 28.0238 264.991 28.3832C265.183 28.7478 265.282 29.128 265.282 29.529C265.282 29.8936 265.22 30.1957 265.095 30.4457C264.98 30.6853 264.829 30.878 264.636 31.029C264.428 31.1853 264.183 31.2947 263.907 31.3624C263.626 31.4353 263.324 31.4665 262.991 31.4665Z" fill="black"/>
<path d="M270.862 35.1332C270.862 33.7738 271.117 32.4978 271.633 31.2999C272.159 30.1072 272.867 29.0655 273.758 28.1749C274.659 27.2738 275.7 26.5707 276.883 26.0707C278.075 25.5603 279.351 25.2999 280.716 25.2999C281.617 25.2999 282.487 25.4197 283.32 25.654C284.153 25.8936 284.935 26.2165 285.674 26.6332C286.409 27.0655 287.07 27.5811 287.653 28.1749C288.247 28.7738 288.768 29.4405 289.216 30.1749C289.633 30.8988 289.956 31.6853 290.195 32.529C290.43 33.3624 290.549 34.2322 290.549 35.1332C290.549 36.0394 290.43 36.904 290.195 37.7374C289.956 38.5707 289.633 39.3572 289.216 40.0915C288.768 40.8155 288.247 41.4822 287.653 42.0915C287.07 42.6905 286.409 43.1957 285.674 43.6124C284.935 44.0447 284.153 44.378 283.32 44.6124C282.487 44.8467 281.617 44.9665 280.716 44.9665C279.351 44.9665 278.075 44.7113 276.883 44.1957C275.7 43.6853 274.659 42.9822 273.758 42.0915C272.867 41.2061 272.159 40.1644 271.633 38.9665C271.117 37.7582 270.862 36.4822 270.862 35.1332ZM275.633 35.1749C275.633 35.8572 275.763 36.5082 276.028 37.1332C276.289 37.7582 276.659 38.3103 277.133 38.779C277.591 39.253 278.122 39.628 278.737 39.904C279.346 40.1853 280.008 40.3207 280.716 40.3207C281.409 40.3207 282.06 40.1853 282.674 39.904C283.299 39.628 283.846 39.253 284.32 38.779C284.763 38.3103 285.117 37.7582 285.383 37.1332C285.659 36.4978 285.799 35.8311 285.799 35.1332C285.799 34.4405 285.659 33.779 285.383 33.154C285.117 32.5186 284.763 31.9665 284.32 31.5082C283.846 31.0394 283.299 30.6697 282.674 30.404C282.06 30.128 281.409 29.9874 280.716 29.9874C280.008 29.9874 279.346 30.128 278.737 30.404C278.122 30.6697 277.591 31.0447 277.133 31.529C276.659 31.9874 276.289 32.5394 276.028 33.1749C275.763 33.8155 275.633 34.4822 275.633 35.1749Z" fill="black"/>
<path d="M295.688 36.9874L295.709 27.8207C295.693 27.6957 295.672 27.5707 295.646 27.4457C295.631 27.3103 295.61 27.1697 295.584 27.029C295.511 26.7947 295.479 26.5447 295.479 26.279C295.479 26.128 295.5 25.9978 295.542 25.8832C295.584 25.7582 295.667 25.6488 295.792 25.5499C296.026 25.3832 296.443 25.2999 297.042 25.2999C297.485 25.2999 297.907 25.3311 298.313 25.3832C298.714 25.4405 299.068 25.5603 299.375 25.7374C299.667 25.9353 299.907 26.1957 300.104 26.529C300.297 26.8519 300.407 27.2738 300.438 27.7999V37.029C300.438 37.5186 300.526 37.977 300.709 38.404C300.886 38.8363 301.151 39.2113 301.5 39.529C301.844 39.8624 302.261 40.128 302.75 40.3207C303.235 40.503 303.782 40.5915 304.396 40.5915C304.938 40.5915 305.448 40.503 305.938 40.3207C306.422 40.128 306.844 39.8624 307.209 39.529C307.568 39.2113 307.854 38.8363 308.063 38.404C308.271 37.977 308.375 37.5186 308.375 37.029L308.354 27.8207C308.339 27.6957 308.323 27.5707 308.313 27.4457C308.297 27.3103 308.276 27.1697 308.25 27.029C308.193 26.7686 308.167 26.5186 308.167 26.279C308.167 26.128 308.188 25.9978 308.229 25.8832C308.271 25.7582 308.354 25.6488 308.479 25.5499C308.589 25.4665 308.74 25.404 308.938 25.3624C309.131 25.3207 309.386 25.2999 309.709 25.2999C310.125 25.2999 310.532 25.3311 310.938 25.3832C311.354 25.4405 311.719 25.5603 312.042 25.7374C312.36 25.9197 312.615 26.1749 312.813 26.5082C313.006 26.8311 313.104 27.2582 313.104 27.7999L313.125 36.9874C313.11 37.753 312.99 38.4874 312.771 39.1957C312.563 39.8936 312.271 40.5499 311.896 41.1749C311.104 42.4561 310.063 43.4613 308.771 44.1957C308.115 44.5603 307.422 44.8311 306.688 45.029C305.948 45.2374 305.188 45.3415 304.396 45.3415C303.188 45.3415 302.052 45.1228 301 44.6957C299.943 44.2686 299.021 43.6697 298.229 42.904C297.438 42.154 296.813 41.2738 296.354 40.2582C295.907 39.2478 295.688 38.154 295.688 36.9874Z" fill="black"/>
<path d="M334.032 41.1957C334.24 41.4457 334.386 41.7165 334.469 42.0082C334.563 42.2998 334.599 42.5915 334.573 42.8832C334.532 43.1748 334.433 43.4613 334.282 43.7373C334.141 44.0186 333.938 44.253 333.678 44.4457C333.412 44.654 333.136 44.7894 332.844 44.8623C332.553 44.9457 332.261 44.9665 331.969 44.9248C331.37 44.8676 330.865 44.5863 330.448 44.0707L327.365 39.6123C327.24 39.628 327.115 39.6436 326.99 39.654C326.875 39.654 326.761 39.654 326.636 39.654H324.115V42.5915C324.115 42.9248 324.053 43.2373 323.928 43.529C323.813 43.8103 323.657 44.0498 323.448 44.2582C323 44.7321 322.438 44.9665 321.761 44.9665C321.063 44.9665 320.495 44.7321 320.053 44.2582C319.844 44.0498 319.678 43.8103 319.553 43.529C319.438 43.2373 319.386 42.9248 319.386 42.5915V27.654C319.37 27.529 319.355 27.3988 319.344 27.2582C319.329 27.1228 319.308 26.9873 319.282 26.8623C319.24 26.7269 319.204 26.5915 319.178 26.4665C319.162 26.3415 319.157 26.2269 319.157 26.1123C319.157 25.9613 319.178 25.8311 319.219 25.7165C319.271 25.5915 319.365 25.4821 319.49 25.3832C319.709 25.2165 320.12 25.1332 320.719 25.1332H326.636C327.678 25.1332 328.662 25.3207 329.594 25.6957C330.537 26.0707 331.37 26.5863 332.094 27.2373C332.813 27.904 333.386 28.6905 333.803 29.5915C334.23 30.4821 334.448 31.4457 334.448 32.4873C334.448 33.5186 334.23 34.4665 333.803 35.3415C333.386 36.2165 332.813 36.9769 332.094 37.6123C331.995 37.6853 331.896 37.7582 331.803 37.8415C331.719 37.9144 331.636 37.9821 331.553 38.0498L334.032 41.1957ZM324.032 35.5707H326.636C327.063 35.5707 327.474 35.503 327.865 35.3623C328.25 35.2113 328.594 35.0082 328.886 34.7582C329.178 34.4978 329.396 34.1853 329.553 33.8207C329.704 33.4613 329.782 33.0655 329.782 32.6332C329.782 32.1905 329.704 31.7738 329.553 31.3832C329.396 30.9978 329.178 30.6488 328.886 30.3415C328.594 30.0498 328.25 29.8155 327.865 29.6332C327.474 29.4561 327.063 29.3623 326.636 29.3623H324.032V35.5707Z" fill="black"/>
<path d="M352.871 31.7165C352.647 31.5082 352.402 31.2999 352.141 31.0915C351.891 30.8832 351.621 30.6957 351.329 30.529C351.022 30.378 350.694 30.253 350.35 30.154C350.001 30.0603 349.605 30.0082 349.162 30.0082C348.454 30.0082 347.792 30.1488 347.183 30.4249C346.569 30.6905 346.037 31.0603 345.579 31.529C345.105 32.003 344.735 32.5603 344.475 33.1957C344.209 33.8207 344.079 34.4822 344.079 35.1749C344.079 35.8728 344.209 36.529 344.475 37.154C344.735 37.779 345.105 38.3311 345.579 38.7999C346.037 39.2582 346.569 39.628 347.183 39.904C347.808 40.1853 348.464 40.3207 349.162 40.3207C349.662 40.3207 350.1 40.2582 350.475 40.1332C350.86 40.0082 351.214 39.852 351.537 39.654C351.871 39.4353 352.188 39.2061 352.496 38.9665C352.631 38.8311 352.787 38.6957 352.954 38.5707C353.121 38.4457 353.287 38.3207 353.454 38.1957C353.871 37.9457 354.339 37.8207 354.871 37.8207C355.105 37.8363 355.339 37.8832 355.579 37.9665C355.813 38.0499 356.027 38.1853 356.225 38.3624C356.751 38.8103 357.016 39.378 357.016 40.0707C357.016 40.378 356.959 40.6749 356.85 40.9665C356.751 41.2478 356.579 41.5082 356.329 41.7582C355.381 42.8832 354.339 43.7061 353.204 44.2165C352.063 44.7322 350.714 44.9874 349.162 44.9874C347.798 44.9874 346.522 44.7322 345.329 44.2165C344.147 43.6905 343.105 42.9822 342.204 42.0915C341.313 41.1905 340.605 40.1488 340.079 38.9665C339.563 37.7738 339.308 36.4978 339.308 35.1332C339.308 34.2322 339.423 33.3624 339.662 32.529C339.897 31.6957 340.23 30.9144 340.662 30.1749C341.089 29.4405 341.605 28.779 342.204 28.1957C342.798 27.6019 343.464 27.0811 344.204 26.6332C344.923 26.2165 345.704 25.8936 346.537 25.654C347.381 25.4197 348.256 25.2999 349.162 25.2999C349.897 25.2999 350.579 25.3572 351.204 25.4665C351.839 25.5811 352.438 25.753 352.996 25.9874C354.089 26.4769 355.121 27.2582 356.079 28.3415C356.287 28.5811 356.444 28.8363 356.558 29.1124C356.683 29.3936 356.751 29.6957 356.766 30.029C356.777 30.2947 356.725 30.5811 356.6 30.8832C356.485 31.1749 356.308 31.4457 356.058 31.6957C355.876 31.8624 355.662 32.0082 355.412 32.1332C355.173 32.2478 354.923 32.3155 354.662 32.3415C354.381 32.3572 354.089 32.3207 353.787 32.2374C353.48 32.1436 353.173 31.9665 352.871 31.7165Z" fill="black"/>
<path d="M377.873 42.5916C377.873 42.9249 377.811 43.2374 377.686 43.5291C377.561 43.8207 377.383 44.0707 377.165 44.2791C376.941 44.4874 376.675 44.6541 376.373 44.7791C376.081 44.9041 375.769 44.9666 375.436 44.9666H365.79C365.425 44.9666 365.087 44.9041 364.769 44.7791C364.462 44.6541 364.206 44.4822 363.998 44.2582C363.524 43.7895 363.29 43.1853 363.29 42.4457V27.8624C363.29 27.7374 363.274 27.6072 363.248 27.4666C363.232 27.3311 363.212 27.1957 363.186 27.0707C363.102 26.8207 363.061 26.5603 363.061 26.2791C363.061 26.128 363.081 25.9978 363.123 25.8832C363.165 25.7582 363.248 25.6488 363.373 25.5499C363.482 25.4666 363.633 25.4041 363.831 25.3624C364.024 25.3103 364.274 25.2791 364.581 25.2791H375.456C375.967 25.2791 376.394 25.3936 376.727 25.6124C377.071 25.8363 377.342 26.1124 377.54 26.4457C377.706 26.7947 377.79 27.1645 377.79 27.5499C377.8 27.9405 377.717 28.2999 377.54 28.6332C377.373 28.9666 377.113 29.2478 376.769 29.4666C376.42 29.6905 375.988 29.7999 375.477 29.7999H368.019V32.9457H373.561C373.92 32.9457 374.253 33.0395 374.561 33.2166C374.878 33.3832 375.144 33.6072 375.352 33.8832C375.561 34.1645 375.691 34.4822 375.748 34.8416C375.8 35.2061 375.753 35.5655 375.602 35.9249C375.436 36.3728 375.17 36.7166 374.811 36.9666C374.446 37.2061 374.029 37.3207 373.561 37.3207H368.019V40.1957H375.415C376.123 40.1957 376.706 40.4197 377.165 40.8624C377.383 41.0707 377.561 41.3207 377.686 41.6124C377.811 41.9041 377.873 42.2322 377.873 42.5916Z" fill="black"/>
<path d="M393.854 31.4665C393.687 31.4665 393.52 31.4613 393.354 31.4457C393.198 31.4353 393.041 31.3936 392.875 31.3207C392.552 31.2113 392.192 30.9822 391.791 30.6332C391.375 30.2478 390.984 29.9405 390.625 29.7165C390.276 29.4822 389.901 29.3624 389.5 29.3624C389.276 29.3624 389.052 29.3936 388.833 29.4457C388.609 29.4874 388.406 29.5655 388.229 29.6749C388.047 29.7738 387.901 29.904 387.791 30.0707C387.677 30.2374 387.625 30.4249 387.625 30.6332C387.625 30.9249 387.75 31.1957 388 31.4457C388.26 31.6853 388.609 31.9144 389.041 32.1332C389.25 32.2582 389.468 32.3832 389.708 32.5082C389.958 32.6332 390.218 32.753 390.5 32.8624C391.052 33.128 391.609 33.404 392.166 33.6957C392.734 33.9769 393.297 34.2894 393.854 34.6332C394.406 34.9665 394.895 35.3572 395.312 35.7999C395.739 36.2478 396.088 36.7322 396.354 37.2582C396.604 37.8155 396.729 38.4353 396.729 39.1124C396.729 40.102 396.5 40.9613 396.041 41.6957C395.593 42.4353 395.02 43.0447 394.312 43.529C393.604 44.0186 392.823 44.3832 391.979 44.6332C391.13 44.8676 390.302 44.9874 389.5 44.9874C388.333 44.9874 387.323 44.8467 386.479 44.5707C385.63 44.2947 384.922 43.9405 384.354 43.5082C383.797 43.0915 383.364 42.628 383.062 42.1124C382.77 41.5863 382.604 41.0811 382.562 40.5915C382.547 40.2894 382.583 39.9978 382.666 39.7165C382.75 39.4405 382.88 39.1957 383.062 38.9874C383.239 38.7947 383.458 38.6332 383.708 38.5082C383.968 38.3832 384.27 38.3207 384.604 38.3207C384.948 38.3207 385.291 38.4144 385.625 38.5915C385.968 38.7582 386.338 39.003 386.729 39.3207C386.864 39.503 387.041 39.6644 387.25 39.7999C387.468 39.9405 387.708 40.0655 387.958 40.1749C388.468 40.4144 388.984 40.529 389.5 40.529C389.76 40.529 390.02 40.503 390.27 40.4457C390.531 40.378 390.76 40.279 390.958 40.154C391.166 40.0447 391.333 39.904 391.458 39.7374C391.593 39.5603 391.666 39.3415 391.666 39.0915C391.666 38.8415 391.541 38.6124 391.291 38.404C391.041 38.1957 390.718 37.9822 390.333 37.7582C390.125 37.6644 389.901 37.5655 389.666 37.4665C389.442 37.3572 389.208 37.2478 388.958 37.1332C388.427 36.9144 387.895 36.6697 387.354 36.404C386.823 36.128 386.302 35.8207 385.791 35.4874C385.26 35.154 384.797 34.7738 384.395 34.3415C384.005 33.8988 383.687 33.3988 383.437 32.8415C383.187 32.2999 383.062 31.6644 383.062 30.9249C383.062 30.0915 383.218 29.3311 383.541 28.6332C383.875 27.9405 384.333 27.3519 384.916 26.8624C385.51 26.3624 386.229 25.9822 387.062 25.7165C387.895 25.4405 388.833 25.2999 389.875 25.2999C390.291 25.2999 390.734 25.3519 391.208 25.4457C391.692 25.5447 392.166 25.6853 392.625 25.8624C393.093 26.0447 393.541 26.2686 393.958 26.529C394.385 26.779 394.76 27.0603 395.083 27.3624C395.401 27.6853 395.656 28.0238 395.854 28.3832C396.047 28.7478 396.145 29.128 396.145 29.529C396.145 29.8936 396.083 30.1957 395.958 30.4457C395.843 30.6853 395.692 30.878 395.5 31.029C395.291 31.1853 395.047 31.2947 394.77 31.3624C394.489 31.4353 394.187 31.4665 393.854 31.4665Z" fill="black"/>
<path d="M191.724 74.9288C191.849 75.085 191.933 75.2517 191.974 75.4288C192.027 75.5954 192.047 75.7621 192.037 75.9288C192.006 76.111 191.954 76.2829 191.87 76.4496C191.787 76.6058 191.667 76.7413 191.516 76.8663C191.349 76.9808 191.183 77.0538 191.016 77.0954C190.849 77.1475 190.672 77.1683 190.495 77.1579C190.146 77.1163 189.849 76.9444 189.599 76.6371L187.766 73.9913C187.693 73.9913 187.62 74.0017 187.537 74.0121C187.464 74.0121 187.396 74.0121 187.329 74.0121H185.829V75.7621C185.829 75.96 185.792 76.1475 185.724 76.3246C185.652 76.4913 185.558 76.6371 185.433 76.7621C185.167 77.0277 184.834 77.1579 184.433 77.1579C184.027 77.1579 183.693 77.0277 183.433 76.7621C183.308 76.6371 183.204 76.4913 183.12 76.3246C183.047 76.1475 183.016 75.96 183.016 75.7621V66.8871C183.016 66.8194 183.006 66.7413 182.995 66.6579C182.98 66.5746 182.964 66.4913 182.954 66.4079C182.922 66.3402 182.902 66.2725 182.891 66.1996C182.891 66.1163 182.891 66.0433 182.891 65.9704C182.891 65.8871 182.902 65.8142 182.933 65.7413C182.959 65.6579 183.006 65.5902 183.079 65.5329C183.214 65.4392 183.464 65.3871 183.829 65.3871H187.329C187.954 65.3871 188.542 65.5017 189.099 65.7204C189.652 65.9444 190.146 66.2517 190.579 66.6371C190.995 67.0433 191.329 67.5069 191.579 68.0329C191.839 68.5642 191.974 69.1371 191.974 69.7621C191.974 70.3767 191.839 70.9444 191.579 71.4704C191.329 71.986 190.995 72.4288 190.579 72.8038C190.521 72.8454 190.464 72.8871 190.412 72.9288C190.355 72.9704 190.297 73.0121 190.245 73.0538L191.724 74.9288ZM185.787 71.5954H187.329C187.589 71.5954 187.834 71.5538 188.058 71.4704C188.292 71.3767 188.495 71.2517 188.662 71.0954C188.839 70.9444 188.974 70.7621 189.058 70.5538C189.152 70.335 189.204 70.0954 189.204 69.8454C189.204 69.585 189.152 69.3402 189.058 69.1163C188.974 68.8819 188.839 68.6735 188.662 68.4913C188.495 68.3142 188.292 68.1735 188.058 68.0746C187.834 67.9652 187.589 67.9079 187.329 67.9079H185.787V71.5954Z" fill="black"/>
<path d="M205.672 75.7621C205.672 75.96 205.63 76.1475 205.547 76.3246C205.474 76.4913 205.38 76.6371 205.255 76.7621C205.115 76.8871 204.953 76.9861 204.776 77.0538C204.61 77.1215 204.427 77.158 204.235 77.158H198.485C198.276 77.158 198.078 77.1215 197.901 77.0538C197.719 76.9861 197.557 76.8819 197.422 76.7413C197.156 76.4653 197.026 76.1111 197.026 75.6788V67.0121C197.011 66.9444 196.995 66.8663 196.985 66.783C196.969 66.6996 196.953 66.6163 196.943 66.533C196.901 66.3819 196.88 66.2309 196.88 66.0746C196.88 65.9809 196.891 65.8975 196.922 65.8246C196.948 65.7569 196.995 65.6944 197.068 65.6371C197.136 65.5955 197.224 65.5642 197.339 65.533C197.448 65.4913 197.594 65.4705 197.776 65.4705H204.235C204.537 65.4705 204.787 65.5434 204.985 65.6788C205.193 65.8038 205.349 65.9705 205.464 66.1788C205.573 66.3767 205.63 66.5903 205.63 66.8246C205.63 67.0642 205.578 67.2778 205.485 67.4705C205.37 67.6684 205.214 67.835 205.005 67.9705C204.807 68.0955 204.557 68.158 204.255 68.158H199.818V70.033H203.11C203.328 70.033 203.531 70.0903 203.714 70.1996C203.891 70.2986 204.047 70.4288 204.172 70.5955C204.297 70.7621 204.37 70.9496 204.401 71.158C204.443 71.3663 204.412 71.585 204.318 71.8038C204.219 72.0694 204.057 72.2725 203.839 72.408C203.63 72.5486 203.386 72.6163 203.11 72.6163H199.818V74.3455H204.214C204.63 74.3455 204.974 74.4705 205.255 74.7205C205.38 74.8455 205.474 75.0017 205.547 75.1788C205.63 75.3611 205.672 75.5538 205.672 75.7621Z" fill="black"/>
<path d="M218.999 75.6163C218.999 76.033 218.864 76.3767 218.603 76.6371C218.489 76.7621 218.353 76.8611 218.187 76.9288C218.02 77.0017 217.843 77.033 217.666 77.033H212.208C211.999 77.033 211.801 76.9913 211.624 76.908C211.458 76.8246 211.312 76.7153 211.187 76.5746C210.905 76.3142 210.77 75.9653 210.77 75.533V66.8455C210.77 66.7778 210.76 66.71 210.749 66.6371C210.734 66.5538 210.718 66.4705 210.708 66.3871C210.666 66.2517 210.645 66.0955 210.645 65.9288C210.645 65.8455 210.655 65.7725 210.687 65.6996C210.713 65.6163 210.76 65.5538 210.833 65.5121C210.968 65.4028 211.218 65.3455 211.583 65.3455C211.843 65.3455 212.093 65.3663 212.333 65.408C212.583 65.4496 212.796 65.5278 212.978 65.6371C213.171 65.7517 213.317 65.9028 213.416 66.0955C213.525 66.2934 213.583 66.5486 213.583 66.8663V74.1996H217.583C217.76 74.1996 217.937 74.2413 218.103 74.3246C218.28 74.3975 218.437 74.4913 218.562 74.6163C218.687 74.7413 218.791 74.8975 218.874 75.0746C218.958 75.2413 218.999 75.4236 218.999 75.6163Z" fill="black"/>
<path d="M228.129 65.4705C228.306 65.4705 228.467 65.5069 228.608 65.5746C228.743 65.6475 228.868 65.7361 228.983 65.8455C229.108 65.96 229.212 66.0903 229.295 66.2413C229.389 66.3819 229.472 66.5278 229.545 66.6788L233.025 75.2413C233.051 75.3403 233.071 75.4288 233.087 75.5121C233.097 75.5955 233.108 75.6892 233.108 75.783C233.108 75.9653 233.066 76.1475 232.983 76.3246C232.91 76.4913 232.801 76.6475 232.65 76.783C232.467 76.9496 232.264 77.059 232.045 77.1163C231.821 77.1684 231.608 77.1788 231.4 77.1371C231.176 77.0798 230.967 76.9861 230.775 76.8455C230.592 76.6944 230.452 76.4913 230.358 76.2413L229.92 75.1788H226.337L225.879 76.2413C225.754 76.5486 225.571 76.783 225.337 76.9496C225.097 77.1163 224.827 77.1892 224.525 77.1788C224.301 77.1788 224.092 77.1267 223.9 77.033C223.717 76.9392 223.571 76.8142 223.462 76.658C223.337 76.5069 223.243 76.3246 223.191 76.1163C223.134 75.908 223.129 75.6996 223.17 75.4913C223.212 75.3819 223.243 75.283 223.275 75.1996C223.301 75.1059 223.337 75.0069 223.379 74.908L226.629 66.8663C226.67 66.7725 226.696 66.6684 226.712 66.5538C226.722 66.4444 226.743 66.3403 226.775 66.2413C226.801 66.1319 226.837 66.033 226.879 65.9496C226.931 65.8559 227.009 65.7725 227.108 65.6996C227.202 65.6319 227.337 65.5746 227.504 65.533C227.655 65.4913 227.863 65.4705 228.129 65.4705ZM229.379 72.9913L228.129 69.8038L226.879 72.9913H229.379Z" fill="black"/>
<path d="M247.274 66.8871C247.274 67.085 247.232 67.2725 247.149 67.4496C247.076 67.6163 246.982 67.7621 246.857 67.8871C246.576 68.1684 246.238 68.3038 245.837 68.3038H243.691L243.649 75.7621C243.649 75.96 243.613 76.1475 243.545 76.3246C243.472 76.4913 243.378 76.6371 243.253 76.7621C243.128 76.8871 242.982 76.9861 242.816 77.0538C242.649 77.1215 242.467 77.158 242.274 77.158C242.066 77.158 241.878 77.1215 241.712 77.0538C241.545 76.9861 241.399 76.8871 241.274 76.7621C241.149 76.6371 241.05 76.4913 240.982 76.3246C240.91 76.1475 240.878 75.96 240.878 75.7621L240.857 68.3038H238.67C238.462 68.3038 238.264 68.2725 238.087 68.1996C237.92 68.1319 237.774 68.033 237.649 67.908C237.524 67.7725 237.42 67.6163 237.337 67.4496C237.264 67.283 237.232 67.0955 237.232 66.8871C237.232 66.4861 237.368 66.1528 237.649 65.8871C237.774 65.7621 237.92 65.6684 238.087 65.5955C238.264 65.5121 238.462 65.4705 238.67 65.4705H245.837C246.029 65.4705 246.212 65.5121 246.378 65.5955C246.555 65.6684 246.712 65.7621 246.837 65.8871C246.972 66.0121 247.076 66.1684 247.149 66.3455C247.232 66.5121 247.274 66.6944 247.274 66.8871Z" fill="black"/>
<path d="M254.975 66.9079V75.7413C254.975 76.1319 254.839 76.4652 254.579 76.7413C254.454 76.8819 254.308 76.9861 254.141 77.0538C253.975 77.1215 253.787 77.1579 253.579 77.1579C253.37 77.1579 253.173 77.1163 252.995 77.0329C252.829 76.9652 252.683 76.8663 252.558 76.7413C252.292 76.4652 252.162 76.1319 252.162 75.7413V66.9913C252.162 66.9079 252.152 66.835 252.141 66.7621C252.126 66.6788 252.11 66.5954 252.1 66.5121C252.058 66.3767 252.037 66.2309 252.037 66.0746C252.037 65.9809 252.048 65.8975 252.079 65.8246C252.105 65.7569 252.152 65.6944 252.225 65.6371C252.36 65.5434 252.61 65.4913 252.975 65.4913C253.235 65.4913 253.485 65.5121 253.725 65.5538C253.959 65.585 254.167 65.6527 254.35 65.7621C254.527 65.8611 254.673 66.0069 254.787 66.1996C254.896 66.3819 254.959 66.6163 254.975 66.9079Z" fill="black"/>
<path d="M260.028 71.3246C260.028 70.5225 260.179 69.7621 260.486 69.0538C260.804 68.3454 261.226 67.7309 261.757 67.1996C262.283 66.6579 262.903 66.2413 263.611 65.9496C264.319 65.6475 265.075 65.4913 265.882 65.4913C266.424 65.4913 266.934 65.5642 267.424 65.6996C267.924 65.8402 268.387 66.0329 268.819 66.2829C269.262 66.5329 269.658 66.8402 270.007 67.1996C270.366 67.5642 270.674 67.96 270.924 68.3871C271.174 68.8194 271.366 69.2829 271.507 69.7829C271.658 70.2829 271.736 70.7986 271.736 71.3246C271.736 71.8663 271.658 72.3871 271.507 72.8871C271.366 73.3767 271.174 73.835 270.924 74.2621C270.674 74.6944 270.366 75.0902 270.007 75.4496C269.658 75.8142 269.262 76.1163 268.819 76.3663C268.387 76.6319 267.924 76.835 267.424 76.9704C266.934 77.0954 266.424 77.1579 265.882 77.1579C265.075 77.1579 264.319 77.0069 263.611 76.6996C262.903 76.3975 262.283 75.9809 261.757 75.4496C261.226 74.9236 260.804 74.3038 260.486 73.5954C260.179 72.8871 260.028 72.1319 260.028 71.3246ZM262.861 71.3454C262.861 71.7621 262.934 72.1579 263.09 72.5329C263.257 72.8975 263.476 73.2152 263.757 73.4913C264.017 73.7725 264.33 73.9913 264.694 74.1579C265.069 74.3246 265.465 74.4079 265.882 74.4079C266.299 74.4079 266.684 74.335 267.049 74.1788C267.424 74.0121 267.747 73.7829 268.028 73.4913C268.288 73.2152 268.497 72.8871 268.653 72.5121C268.819 72.1371 268.903 71.7413 268.903 71.3246C268.903 70.9079 268.819 70.5225 268.653 70.1579C268.497 69.7829 268.288 69.46 268.028 69.1788C267.747 68.9027 267.424 68.6892 267.049 68.5329C266.684 68.3663 266.299 68.2829 265.882 68.2829C265.465 68.2829 265.069 68.3663 264.694 68.5329C264.33 68.6892 264.017 68.9027 263.757 69.1788C263.476 69.46 263.257 69.7934 263.09 70.1788C262.934 70.5538 262.861 70.9444 262.861 71.3454Z" fill="black"/>
<path d="M287.13 66.9079V75.6163C287.13 76.0486 287.005 76.4079 286.755 76.6996C286.63 76.8402 286.474 76.9496 286.297 77.0329C286.13 77.1163 285.943 77.1579 285.734 77.1579C285.51 77.1579 285.302 77.1163 285.109 77.0329C284.927 76.9392 284.76 76.8038 284.609 76.6371L279.713 70.8038C279.713 71.0017 279.713 71.1996 279.713 71.4079C279.713 71.6059 279.713 71.8038 279.713 72.0121V73.2829C279.698 73.4913 279.693 73.71 279.693 73.9288C279.693 74.1371 279.693 74.3454 279.693 74.5538V75.7621C279.693 75.96 279.656 76.1475 279.588 76.3246C279.515 76.4913 279.427 76.6371 279.318 76.7621C279.177 76.8871 279.026 76.9861 278.859 77.0538C278.693 77.1215 278.51 77.1579 278.318 77.1579C278.109 77.1579 277.922 77.1215 277.755 77.0538C277.588 76.9861 277.443 76.8871 277.318 76.7621C277.193 76.6371 277.088 76.4913 277.005 76.3246C276.932 76.1475 276.901 75.96 276.901 75.7621V66.9913C276.901 66.9079 276.89 66.835 276.88 66.7621C276.864 66.6788 276.849 66.5954 276.838 66.5121C276.797 66.3767 276.776 66.2204 276.776 66.0538C276.776 65.9704 276.786 65.8975 276.818 65.8246C276.844 65.7569 276.89 65.6944 276.963 65.6371C277.099 65.5434 277.349 65.4913 277.713 65.4913C277.922 65.4913 278.109 65.5017 278.276 65.5121C278.443 65.5121 278.588 65.5329 278.713 65.5746C278.849 65.6319 278.974 65.6996 279.088 65.7829C279.213 65.8559 279.344 65.9652 279.484 66.1163L284.318 71.8663L284.297 67.0329C284.297 66.9496 284.286 66.8663 284.276 66.7829C284.276 66.6996 284.26 66.6163 284.234 66.5329C284.193 66.3819 284.172 66.2309 284.172 66.0746C284.172 65.9652 284.182 65.8767 284.213 65.8038C284.239 65.7204 284.297 65.6579 284.38 65.6163C284.547 65.5329 284.88 65.4913 285.38 65.4913C285.63 65.4913 285.859 65.5121 286.068 65.5538C286.276 65.585 286.453 65.6475 286.609 65.7413C286.776 65.8559 286.901 66.0017 286.984 66.1788C287.078 66.3611 287.13 66.6059 287.13 66.9079Z" fill="black"/>
<path d="M303.081 66.9079V75.6163C303.081 76.0486 302.956 76.4079 302.706 76.6996C302.581 76.8402 302.425 76.9496 302.248 77.0329C302.081 77.1163 301.894 77.1579 301.685 77.1579C301.461 77.1579 301.253 77.1163 301.06 77.0329C300.878 76.9392 300.711 76.8038 300.56 76.6371L295.665 70.8038C295.665 71.0017 295.665 71.1996 295.665 71.4079C295.665 71.6059 295.665 71.8038 295.665 72.0121V73.2829C295.649 73.4913 295.644 73.71 295.644 73.9288C295.644 74.1371 295.644 74.3454 295.644 74.5538V75.7621C295.644 75.96 295.607 76.1475 295.54 76.3246C295.467 76.4913 295.378 76.6371 295.269 76.7621C295.128 76.8871 294.977 76.9861 294.81 77.0538C294.644 77.1215 294.461 77.1579 294.269 77.1579C294.06 77.1579 293.873 77.1215 293.706 77.0538C293.54 76.9861 293.394 76.8871 293.269 76.7621C293.144 76.6371 293.04 76.4913 292.956 76.3246C292.883 76.1475 292.852 75.96 292.852 75.7621V66.9913C292.852 66.9079 292.842 66.835 292.831 66.7621C292.816 66.6788 292.8 66.5954 292.79 66.5121C292.748 66.3767 292.727 66.2204 292.727 66.0538C292.727 65.9704 292.737 65.8975 292.769 65.8246C292.795 65.7569 292.842 65.6944 292.915 65.6371C293.05 65.5434 293.3 65.4913 293.665 65.4913C293.873 65.4913 294.06 65.5017 294.227 65.5121C294.394 65.5121 294.54 65.5329 294.665 65.5746C294.8 65.6319 294.925 65.6996 295.04 65.7829C295.165 65.8559 295.295 65.9652 295.435 66.1163L300.269 71.8663L300.248 67.0329C300.248 66.9496 300.237 66.8663 300.227 66.7829C300.227 66.6996 300.211 66.6163 300.185 66.5329C300.144 66.3819 300.123 66.2309 300.123 66.0746C300.123 65.9652 300.133 65.8767 300.165 65.8038C300.191 65.7204 300.248 65.6579 300.331 65.6163C300.498 65.5329 300.831 65.4913 301.331 65.4913C301.581 65.4913 301.81 65.5121 302.019 65.5538C302.227 65.585 302.404 65.6475 302.56 65.7413C302.727 65.8559 302.852 66.0017 302.935 66.1788C303.029 66.3611 303.081 66.6059 303.081 66.9079Z" fill="black"/>
<path d="M317.47 75.7621C317.47 75.96 317.429 76.1475 317.345 76.3246C317.272 76.4913 317.179 76.6371 317.054 76.7621C316.913 76.8871 316.752 76.9861 316.575 77.0538C316.408 77.1215 316.226 77.158 316.033 77.158H310.283C310.075 77.158 309.877 77.1215 309.7 77.0538C309.517 76.9861 309.356 76.8819 309.22 76.7413C308.955 76.4653 308.825 76.1111 308.825 75.6788V67.0121C308.809 66.9444 308.793 66.8663 308.783 66.783C308.767 66.6996 308.752 66.6163 308.741 66.533C308.7 66.3819 308.679 66.2309 308.679 66.0746C308.679 65.9809 308.689 65.8975 308.72 65.8246C308.746 65.7569 308.793 65.6944 308.866 65.6371C308.934 65.5955 309.022 65.5642 309.137 65.533C309.246 65.4913 309.392 65.4705 309.575 65.4705H316.033C316.335 65.4705 316.585 65.5434 316.783 65.6788C316.991 65.8038 317.147 65.9705 317.262 66.1788C317.371 66.3767 317.429 66.5903 317.429 66.8246C317.429 67.0642 317.377 67.2778 317.283 67.4705C317.168 67.6684 317.012 67.835 316.804 67.9705C316.606 68.0955 316.356 68.158 316.054 68.158H311.616V70.033H314.908C315.127 70.033 315.33 70.0903 315.512 70.1996C315.689 70.2986 315.845 70.4288 315.97 70.5955C316.095 70.7621 316.168 70.9496 316.2 71.158C316.241 71.3663 316.21 71.585 316.116 71.8038C316.017 72.0694 315.856 72.2725 315.637 72.408C315.429 72.5486 315.184 72.6163 314.908 72.6163H311.616V74.3455H316.012C316.429 74.3455 316.772 74.4705 317.054 74.7205C317.179 74.8455 317.272 75.0017 317.345 75.1788C317.429 75.3611 317.47 75.5538 317.47 75.7621Z" fill="black"/>
<path d="M330.797 75.6163C330.797 76.033 330.662 76.3767 330.401 76.6371C330.287 76.7621 330.151 76.8611 329.985 76.9288C329.818 77.0017 329.641 77.033 329.464 77.033H324.005C323.797 77.033 323.599 76.9913 323.422 76.908C323.255 76.8246 323.11 76.7153 322.985 76.5746C322.703 76.3142 322.568 75.9653 322.568 75.533V66.8455C322.568 66.7778 322.557 66.71 322.547 66.6371C322.531 66.5538 322.516 66.4705 322.505 66.3871C322.464 66.2517 322.443 66.0955 322.443 65.9288C322.443 65.8455 322.453 65.7725 322.485 65.6996C322.511 65.6163 322.557 65.5538 322.63 65.5121C322.766 65.4028 323.016 65.3455 323.38 65.3455C323.641 65.3455 323.891 65.3663 324.13 65.408C324.38 65.4496 324.594 65.5278 324.776 65.6371C324.969 65.7517 325.115 65.9028 325.214 66.0955C325.323 66.2934 325.38 66.5486 325.38 66.8663V74.1996H329.38C329.557 74.1996 329.735 74.2413 329.901 74.3246C330.078 74.3975 330.235 74.4913 330.36 74.6163C330.485 74.7413 330.589 74.8975 330.672 75.0746C330.755 75.2413 330.797 75.4236 330.797 75.6163Z" fill="black"/>
<path d="M344.093 75.6163C344.093 76.033 343.958 76.3767 343.698 76.6371C343.583 76.7621 343.448 76.8611 343.281 76.9288C343.114 77.0017 342.937 77.033 342.76 77.033H337.302C337.093 77.033 336.896 76.9913 336.718 76.908C336.552 76.8246 336.406 76.7153 336.281 76.5746C336 76.3142 335.864 75.9653 335.864 75.533V66.8455C335.864 66.7778 335.854 66.71 335.843 66.6371C335.828 66.5538 335.812 66.4705 335.802 66.3871C335.76 66.2517 335.739 66.0955 335.739 65.9288C335.739 65.8455 335.75 65.7725 335.781 65.6996C335.807 65.6163 335.854 65.5538 335.927 65.5121C336.062 65.4028 336.312 65.3455 336.677 65.3455C336.937 65.3455 337.187 65.3663 337.427 65.408C337.677 65.4496 337.89 65.5278 338.073 65.6371C338.265 65.7517 338.411 65.9028 338.51 66.0955C338.619 66.2934 338.677 66.5486 338.677 66.8663V74.1996H342.677C342.854 74.1996 343.031 74.2413 343.198 74.3246C343.375 74.3975 343.531 74.4913 343.656 74.6163C343.781 74.7413 343.885 74.8975 343.968 75.0746C344.052 75.2413 344.093 75.4236 344.093 75.6163Z" fill="black"/>
<path d="M357.827 75.7621C357.827 75.96 357.786 76.1475 357.702 76.3246C357.629 76.4913 357.536 76.6371 357.411 76.7621C357.27 76.8871 357.109 76.9861 356.931 77.0538C356.765 77.1215 356.583 77.158 356.39 77.158H350.64C350.431 77.158 350.234 77.1215 350.056 77.0538C349.874 76.9861 349.713 76.8819 349.577 76.7413C349.312 76.4653 349.181 76.1111 349.181 75.6788V67.0121C349.166 66.9444 349.15 66.8663 349.14 66.783C349.124 66.6996 349.109 66.6163 349.098 66.533C349.056 66.3819 349.036 66.2309 349.036 66.0746C349.036 65.9809 349.046 65.8975 349.077 65.8246C349.103 65.7569 349.15 65.6944 349.223 65.6371C349.291 65.5955 349.379 65.5642 349.494 65.533C349.603 65.4913 349.749 65.4705 349.931 65.4705H356.39C356.692 65.4705 356.942 65.5434 357.14 65.6788C357.348 65.8038 357.504 65.9705 357.619 66.1788C357.728 66.3767 357.786 66.5903 357.786 66.8246C357.786 67.0642 357.734 67.2778 357.64 67.4705C357.525 67.6684 357.369 67.835 357.161 67.9705C356.963 68.0955 356.713 68.158 356.411 68.158H351.973V70.033H355.265C355.484 70.033 355.687 70.0903 355.869 70.1996C356.046 70.2986 356.202 70.4288 356.327 70.5955C356.452 70.7621 356.525 70.9496 356.556 71.158C356.598 71.3663 356.567 71.585 356.473 71.8038C356.374 72.0694 356.213 72.2725 355.994 72.408C355.786 72.5486 355.541 72.6163 355.265 72.6163H351.973V74.3455H356.369C356.786 74.3455 357.129 74.4705 357.411 74.7205C357.536 74.8455 357.629 75.0017 357.702 75.1788C357.786 75.3611 357.827 75.5538 357.827 75.7621Z" fill="black"/>
<path d="M368.779 69.1579C368.68 69.1579 368.581 69.1527 368.487 69.1371C368.389 69.1267 368.29 69.1059 368.196 69.0746C368.014 69.0069 367.8 68.8663 367.55 68.6579C367.31 68.4236 367.081 68.2413 366.862 68.1163C366.654 67.9809 366.43 67.9079 366.196 67.9079C366.071 67.9079 365.935 67.9236 365.8 67.9496C365.675 67.9809 365.555 68.0277 365.446 68.0954C365.331 68.1527 365.243 68.2309 365.175 68.3246C365.102 68.4236 365.071 68.5329 365.071 68.6579C365.071 68.8246 365.144 68.9861 365.3 69.1371C365.467 69.2777 365.675 69.4184 365.925 69.5538C366.05 69.6267 366.18 69.6996 366.321 69.7829C366.472 69.8559 366.633 69.9236 366.8 69.9913C367.118 70.1475 367.446 70.3038 367.779 70.4704C368.123 70.6371 368.456 70.8246 368.779 71.0329C369.112 71.2413 369.404 71.4809 369.654 71.7413C369.904 71.9913 370.102 72.2777 370.258 72.5954C370.425 72.9288 370.508 73.2986 370.508 73.6996C370.508 74.2829 370.368 74.7986 370.092 75.2413C369.826 75.6736 369.477 76.0277 369.05 76.3038C368.633 76.6111 368.175 76.835 367.675 76.9704C367.175 77.1059 366.68 77.1788 366.196 77.1788C365.498 77.1788 364.904 77.1006 364.404 76.9496C363.904 76.7829 363.487 76.5694 363.154 76.3038C362.821 76.0538 362.56 75.7777 362.383 75.4704C362.201 75.1527 362.097 74.8559 362.071 74.5746C362.071 74.3975 362.092 74.2204 362.133 74.0538C362.185 73.8871 362.269 73.7413 362.383 73.6163C362.477 73.5069 362.602 73.4184 362.758 73.3454C362.909 73.2621 363.081 73.2204 363.279 73.2204C363.487 73.2204 363.696 73.2777 363.904 73.3871C364.112 73.4861 364.326 73.6319 364.55 73.8246C364.633 73.9236 364.737 74.0121 364.862 74.0954C364.998 74.1788 365.139 74.2569 365.279 74.3246C365.581 74.4652 365.889 74.5329 366.196 74.5329C366.347 74.5329 366.498 74.5225 366.654 74.4913C366.805 74.4496 366.946 74.3975 367.071 74.3246C367.196 74.2569 367.29 74.1736 367.362 74.0746C367.446 73.9652 367.487 73.835 367.487 73.6788C367.487 73.5277 367.409 73.3871 367.258 73.2621C367.118 73.1371 366.93 73.0121 366.696 72.8871C366.571 72.835 366.435 72.7777 366.3 72.7204C366.175 72.6527 366.029 72.585 365.862 72.5121C365.555 72.3871 365.243 72.2517 364.925 72.0954C364.602 71.9288 364.29 71.7413 363.987 71.5329C363.68 71.3402 363.409 71.1163 363.175 70.8663C362.935 70.6059 362.748 70.3038 362.612 69.9704C362.456 69.6527 362.383 69.2725 362.383 68.8246C362.383 68.3402 362.472 67.8871 362.654 67.4704C362.847 67.0538 363.123 66.6996 363.487 66.4079C363.831 66.1163 364.248 65.8975 364.737 65.7413C365.237 65.5746 365.8 65.4913 366.425 65.4913C366.675 65.4913 366.935 65.5225 367.217 65.5746C367.508 65.6319 367.784 65.7152 368.05 65.8246C368.326 65.9236 368.592 66.0538 368.842 66.2204C369.102 66.3767 369.326 66.5434 369.508 66.7204C369.701 66.9027 369.852 67.1059 369.967 67.3246C370.092 67.5329 370.154 67.7569 370.154 67.9913C370.154 68.2152 370.118 68.4027 370.05 68.5538C369.977 68.6944 369.883 68.8038 369.758 68.8871C369.633 68.9861 369.487 69.0538 369.321 69.0954C369.165 69.1371 368.987 69.1579 368.779 69.1579Z" fill="black"/>
</svg>
