<svg width="209" height="56" viewBox="0 0 209 56" fill="none" xmlns="http://www.w3.org/2000/svg">
<rect width="209" height="56" fill="#000091"/>
<path d="M46.992 19.0979L31.998 10.4209L17.004 19.1819C16.9114 19.2346 16.8344 19.3108 16.7807 19.4028C16.727 19.4948 16.6984 19.5993 16.698 19.7059V36.6539C16.7039 36.7592 16.7347 36.8616 16.7879 36.9527C16.8411 37.0439 16.9151 37.121 17.004 37.1779L31.996 45.7779L46.99 37.0719C47.0789 37.0151 47.153 36.9379 47.2063 36.8468C47.2595 36.7557 47.2902 36.6532 47.296 36.5479V19.6259C47.2966 19.5188 47.2687 19.4136 47.2153 19.3208C47.1619 19.2281 47.0848 19.1511 46.992 19.0979Z" fill="#000091"/>
<path d="M26.641 19.5979L21.612 28.2259L17.055 19.0509L22.445 15.9379L26.934 19.0979L26.641 19.5979ZM47.297 36.5779V19.6199C47.297 19.5134 47.2686 19.4088 47.2149 19.3169C47.1611 19.225 47.0838 19.1491 46.991 19.0969L31.998 10.4209" fill="#E1000F"/>
<path d="M16.7 36.5779L32 10.4209V45.7829L17.004 37.1779C16.9151 37.121 16.8411 37.0439 16.7879 36.9527C16.7347 36.8616 16.7039 36.7592 16.698 36.6539V19.7059L16.7 36.5779ZM41.369 15.8429L46.827 18.9979L42.338 28.1479L36.951 18.9119L41.369 15.8429Z" fill="#0063CB"/>
<path d="M51.606 16.3029L32.416 5.28287C32.2868 5.2185 32.1444 5.185 32 5.185C31.8556 5.185 31.7132 5.2185 31.584 5.28287L12.394 16.3029C12.2785 16.3798 12.1827 16.4827 12.1142 16.6034C12.0458 16.7242 12.0067 16.8593 12 16.9979V38.9979C12.0059 39.1373 12.0446 39.2734 12.1131 39.3951C12.1816 39.5167 12.2778 39.6205 12.394 39.6979L31.583 50.7179C31.7122 50.7822 31.8546 50.8157 31.999 50.8157C32.1434 50.8157 32.2858 50.7822 32.415 50.7179L51.606 39.6979C51.7222 39.6205 51.8184 39.5167 51.8869 39.3951C51.9554 39.2734 51.9941 39.1373 52 38.9979V16.9979C51.9933 16.8593 51.9542 16.7242 51.8858 16.6034C51.8173 16.4827 51.7215 16.3798 51.606 16.3029ZM22.789 34.0589H22.868C22.826 34.0589 22.789 34.0659 22.789 34.1089C22.789 34.2089 22.94 34.1089 22.989 34.2089C22.7514 34.2154 22.5257 34.3144 22.36 34.4849C22.36 34.5359 22.46 34.5359 22.511 34.5359C22.436 34.6359 22.285 34.5859 22.234 34.6869C22.2611 34.7139 22.2961 34.7314 22.334 34.7369C22.284 34.7369 22.234 34.7369 22.234 34.7879V34.9389C22.108 34.9389 22.058 35.0389 21.957 35.0899C22.157 35.2409 22.284 35.0899 22.485 35.0899C21.957 35.2899 21.529 35.5679 21.001 35.7189C20.901 35.7189 21.001 35.8699 20.901 35.8699C21.052 35.9699 21.128 35.8199 21.278 35.8199C20.624 36.1969 19.945 36.5199 19.241 36.9519C19.1868 37.0059 19.1516 37.0761 19.141 37.1519H18.941C18.841 37.2019 18.891 37.3279 18.79 37.4289C19.016 37.5799 19.29 37.2289 19.444 37.4289C19.494 37.4289 19.344 37.4789 19.244 37.4789C19.194 37.4789 19.194 37.5789 19.144 37.5789H18.99C18.89 37.6539 18.79 37.7049 18.79 37.8549C18.7466 37.8469 18.7019 37.8521 18.6615 37.8699C18.6212 37.8878 18.5872 37.9174 18.564 37.9549C19.638 37.9506 20.7027 37.7549 21.708 37.3769C22.4877 36.9799 23.1938 36.4526 23.796 35.8179C23.8231 35.8449 23.8406 35.88 23.846 35.9179C23.6989 36.3544 23.4166 36.7326 23.04 36.9979C22.763 37.1489 22.562 37.3749 22.34 37.4759C22.1917 37.5588 22.0487 37.651 21.912 37.7519C21.2797 37.9486 20.6306 38.0865 19.973 38.1639L19.668 38.2079C19.443 38.2409 19.219 38.2769 18.997 38.3159L17.004 37.1779C16.9311 37.132 16.868 37.072 16.8186 37.0014C16.7691 36.9308 16.7343 36.8511 16.716 36.7669C16.7493 36.749 16.7808 36.7279 16.81 36.7039C16.779 36.671 16.7401 36.6465 16.697 36.6329V35.9829C17.7449 35.7965 18.7655 35.4801 19.735 35.0409C18.8177 34.4034 17.7868 33.9475 16.698 33.6979V32.1829C17.2531 32.2738 17.8008 32.4049 18.337 32.5749C18.7498 32.7265 19.1459 32.9202 19.519 33.1529C19.6656 33.2939 19.8257 33.4201 19.997 33.5299C20.1177 33.5987 20.2525 33.639 20.3912 33.6477C20.5299 33.6564 20.6687 33.6332 20.797 33.5799H21.127C21.8434 33.4615 22.5135 33.1484 23.064 32.6749C23.064 32.7249 23.114 32.7249 23.164 32.7249C23.0857 33.1235 22.941 33.5061 22.736 33.8569C22.739 33.9079 22.688 34.0089 22.789 34.0589ZM25.606 37.6299C25.857 37.5299 26.006 37.3529 26.235 37.2529C26.185 37.3029 26.185 37.4039 26.135 37.4529C25.9474 37.5701 25.7707 37.704 25.607 37.8529C25.0413 38.3514 24.5116 38.8894 24.022 39.4629C23.77 39.7629 23.494 40.0409 23.222 40.3179C23.1256 40.408 23.0219 40.4899 22.912 40.5629L20.385 39.1129C20.7444 39.1432 21.1063 39.1254 21.461 39.0599C21.7554 38.9773 22.0416 38.8679 22.316 38.7329V38.8329C23.016 38.5559 23.548 37.9269 24.253 37.7009C24.278 37.7009 24.379 37.8009 24.479 37.7509C24.6601 37.5264 24.8904 37.3466 25.152 37.2252C25.4136 37.1038 25.6997 37.0442 25.988 37.0509C25.988 37.1009 25.988 37.1509 26.038 37.1509H26.063C25.912 37.2769 25.736 37.4019 25.563 37.5279C25.506 37.5799 25.556 37.6299 25.606 37.6299ZM16.698 31.4659V31.2799C17.2161 31.1444 17.7505 31.0811 18.286 31.0919C18.4443 31.0667 18.6057 31.0667 18.764 31.0919C18.0584 31.0912 17.3585 31.2179 16.698 31.4659ZM47.298 36.5539C47.2922 36.6592 47.2615 36.7617 47.2083 36.8528C47.155 36.9439 47.0809 37.0211 46.992 37.0779L36.913 42.9289C35.7558 42.5977 34.618 42.2021 33.505 41.7439C33.3437 41.3929 33.256 41.0127 33.2474 40.6266C33.2388 40.2404 33.3095 39.8566 33.455 39.4989C33.5349 39.1909 33.6531 38.8943 33.807 38.6159C33.832 38.5909 33.857 38.5659 33.857 38.5399C33.8636 38.5399 33.87 38.5372 33.8747 38.5326C33.8794 38.5279 33.882 38.5215 33.882 38.5149C33.9931 38.3204 34.1191 38.1348 34.259 37.9599L34.274 37.9449L34.294 37.9239L34.309 37.9089C34.309 37.8839 34.334 37.8589 34.359 37.8329C34.384 37.7819 34.434 37.7569 34.459 37.7069C34.6346 37.521 34.8285 37.3535 35.038 37.2069C35.2507 37.1298 35.4695 37.0706 35.692 37.0299C36.503 37.0896 37.3095 37.1991 38.107 37.3579C38.205 37.3726 38.2992 37.4066 38.384 37.4579C38.6851 37.5165 38.9962 37.4994 39.289 37.4079C39.4799 37.373 39.6587 37.2897 39.8084 37.1662C39.9581 37.0426 40.0736 36.8827 40.144 36.7019C40.232 36.5407 40.2823 36.3616 40.2909 36.1781C40.2996 35.9947 40.2664 35.8116 40.194 35.6429C40.016 35.3669 40.181 35.2059 40.375 35.0529L40.443 34.9979C40.5294 34.9367 40.6071 34.864 40.674 34.7819C40.8 34.5299 40.574 34.3819 40.523 34.1519C40.473 34.0519 40.297 34.1019 40.196 33.9519C40.548 33.8009 41.051 33.5229 40.825 33.0949C40.674 32.8679 40.448 32.4649 40.725 32.2379C41.077 32.0379 41.58 32.0869 41.731 31.7589C41.7804 31.5682 41.7794 31.368 41.7282 31.1778C41.6771 30.9876 41.5774 30.814 41.439 30.6739L41.364 30.5659C41.289 30.4589 41.215 30.3519 41.153 30.2459C40.9941 29.9821 40.8177 29.7292 40.625 29.4889C40.405 29.1774 40.2275 28.8381 40.097 28.4799C39.946 28.1019 40.147 27.7739 40.147 27.3959C40.1618 26.6677 40.0512 25.9425 39.82 25.2519C39.694 24.8989 39.644 24.5209 39.493 24.1929C39.474 23.9821 39.3956 23.781 39.267 23.6129C39.2422 23.5618 39.2292 23.5057 39.2292 23.4489C39.2292 23.3921 39.2422 23.336 39.267 23.2849C39.472 23.1403 39.6656 22.9802 39.846 22.8059C39.9017 22.6836 39.9122 22.5455 39.8756 22.4162C39.839 22.2869 39.7576 22.1748 39.646 22.0999C39.319 21.9489 39.346 22.4279 39.118 22.5289H38.967C38.917 22.4029 39.017 22.3519 39.118 22.2519C39.118 22.2019 39.118 22.1009 39.068 22.1009C38.868 22.1009 38.691 22.0499 38.64 21.9499C38.158 21.3492 37.5113 20.9023 36.779 20.6639C36.967 20.7216 37.1615 20.7552 37.358 20.7639C37.6956 20.8353 38.0471 20.8003 38.364 20.6639C38.591 20.5879 38.641 20.1849 38.741 19.9579C38.7613 19.848 38.7583 19.7351 38.7323 19.6264C38.7063 19.5177 38.6578 19.4157 38.59 19.3269C38.3629 18.9967 38.0495 18.7352 37.684 18.5709C37.508 18.4949 37.231 18.3439 37.005 18.2179C36.928 18.1637 36.8434 18.1212 36.754 18.0919C33.789 16.6069 27.685 17.8919 27.22 18.0919H27.211C26.7825 18.2161 26.3648 18.375 25.962 18.5669C25.4074 18.7728 24.9066 19.1015 24.497 19.5284C24.0875 19.9552 23.7798 20.4692 23.597 21.0319C23.026 21.407 22.5658 21.928 22.264 22.5409C21.836 23.3409 21.208 24.0499 21.308 24.9549C21.408 25.7349 21.585 26.4389 21.736 27.2439C21.7789 27.5159 21.8459 27.7836 21.936 28.0439C22.036 28.3199 21.936 28.6729 22.087 28.8989C22.162 29.0499 22.112 29.2259 22.314 29.3269V29.5269C22.364 29.5769 22.364 29.6269 22.465 29.6269V29.8269C22.8997 30.2504 23.2723 30.7331 23.572 31.2609C23.672 31.5369 23.094 31.4119 22.872 31.3109C22.4565 31.0404 22.0762 30.7192 21.74 30.3549C21.7125 30.3817 21.6946 30.4168 21.689 30.4549C21.889 30.8069 22.595 31.2349 22.217 31.4609C22.017 31.5609 21.789 31.3099 21.588 31.5119C21.538 31.5869 21.588 31.6879 21.588 31.7879C21.311 31.5879 21.01 31.6879 20.733 31.5879C20.533 31.5379 20.481 31.1609 20.255 31.1609C19.6585 31.0153 19.0537 30.9061 18.444 30.8339C17.8679 30.7475 17.2872 30.6944 16.705 30.6749V19.7059C16.7054 19.5993 16.734 19.4948 16.7877 19.4028C16.8414 19.3108 16.9184 19.2346 17.011 19.1819L31.998 10.4209L46.992 19.0979C47.0846 19.1505 47.1617 19.2267 47.2154 19.3187C47.2692 19.4107 47.2977 19.5153 47.298 19.6219V36.5539ZM39.344 28.2929C39.3138 28.3399 39.2719 28.3782 39.2225 28.4043C39.1731 28.4304 39.1178 28.4434 39.062 28.4419C38.9618 28.5263 38.8676 28.6175 38.78 28.7149C38.88 28.7149 38.78 28.8639 38.88 28.8639C38.675 29.0869 38.957 29.5579 38.675 29.6569C38.3059 29.7558 37.9171 29.7558 37.548 29.6569C37.6029 29.6451 37.6589 29.6397 37.715 29.6409H37.8C37.8627 29.6484 37.9263 29.6404 37.9851 29.6173C38.0439 29.5943 38.0961 29.557 38.137 29.5089V29.3089C38.137 29.2589 38.086 29.2589 38.037 29.2589C38.0107 29.287 37.9752 29.3047 37.937 29.3089C37.9345 29.2639 37.9185 29.2207 37.891 29.185C37.8635 29.1493 37.8259 29.1227 37.783 29.1089C37.6501 29.1266 37.5148 29.1109 37.3894 29.0633C37.2641 29.0156 37.1526 28.9375 37.065 28.8359C37.2006 28.7707 37.3542 28.7531 37.501 28.7859C37.629 28.7859 37.578 28.5629 37.732 28.4639H37.886C38.193 28.0919 38.757 27.9929 38.86 27.6209C38.86 27.5209 38.578 27.5209 38.373 27.4719C38.0989 27.4383 37.821 27.4552 37.553 27.5219C37.1932 27.5715 36.8405 27.6631 36.502 27.7949C36.7823 27.5891 37.094 27.4301 37.425 27.3239C37.6574 27.2344 37.8978 27.1674 38.143 27.1239L38.275 27.0979L38.408 27.0709C38.5894 27.0167 38.7826 27.0167 38.964 27.0709C39.195 27.1709 39.579 27.1709 39.63 27.3189C39.73 27.5919 39.476 27.8639 39.195 28.0629C39.138 28.1439 39.344 28.1979 39.344 28.2929Z" fill="white"/>
<path d="M64.986 24.868L66.176 23.78C66.992 24.834 67.944 25.395 69.049 25.395C70.375 25.395 71.14 24.596 71.14 23.508C71.14 20.822 65.496 21.4 65.496 17.473C65.496 15.705 66.958 14.26 69.032 14.26C70.698 14.26 71.922 15.025 72.806 16.198L71.599 17.252C70.902 16.249 70.069 15.688 69.049 15.688C67.876 15.688 67.128 16.419 67.128 17.439C67.128 20.108 72.755 19.496 72.755 23.457C72.755 25.514 71.174 26.823 69.066 26.823C67.315 26.823 66.023 26.16 64.986 24.868ZM75.8029 19.156H74.4599L75.9049 14.6H77.5539L75.8029 19.156ZM80.6214 15.705C80.0604 15.705 79.6014 15.246 79.6014 14.685C79.6014 14.141 80.0604 13.682 80.6214 13.682C81.1824 13.682 81.6244 14.141 81.6244 14.685C81.6244 15.246 81.1824 15.705 80.6214 15.705ZM79.8904 26.5V17.932H81.3354V26.5H79.8904ZM83.6584 22.216C83.6584 19.717 85.3754 17.592 88.0614 17.592C89.3364 17.592 90.3394 18.085 91.1044 18.952V13.75H92.5494V26.5H91.1044V25.48C90.3394 26.347 89.3364 26.84 88.0614 26.84C85.3754 26.84 83.6584 24.715 83.6584 22.216ZM85.1884 22.216C85.1884 24.035 86.4124 25.48 88.2314 25.48C89.4214 25.48 90.4754 24.902 91.1044 23.899V20.533C90.4414 19.513 89.4044 18.952 88.2314 18.952C86.4124 18.952 85.1884 20.397 85.1884 22.216ZM103.211 25.089C102.412 26.16 101.137 26.84 99.5394 26.84C96.6494 26.84 94.8644 24.715 94.8644 22.216C94.8644 19.615 96.5304 17.592 99.1824 17.592C101.511 17.592 103.024 19.224 103.024 21.332C103.024 21.672 102.973 21.995 102.922 22.233H96.3434C96.3944 24.29 97.7034 25.531 99.5394 25.531C100.644 25.531 101.579 25.021 102.14 24.256L103.211 25.089ZM99.1484 18.816C97.7374 18.816 96.7514 19.649 96.4454 21.128H101.579C101.528 19.87 100.661 18.816 99.1484 18.816ZM105.473 26.5V17.932H106.918V18.901C107.615 18.136 108.499 17.592 109.774 17.592C111.695 17.592 113.123 18.884 113.123 21.315V26.5H111.678V21.366C111.678 19.836 110.811 18.952 109.485 18.952C108.244 18.952 107.462 19.666 106.918 20.567V26.5H105.473ZM116.525 23.627V19.241H114.91V17.932H116.525V15.79H117.987V17.932H120.962V19.241H117.987V23.627C117.987 24.97 118.667 25.344 119.704 25.344C120.265 25.344 120.656 25.276 120.979 25.14V26.432C120.571 26.602 120.112 26.67 119.5 26.67C117.596 26.67 116.525 25.718 116.525 23.627ZM123.902 15.705C123.341 15.705 122.882 15.246 122.882 14.685C122.882 14.141 123.341 13.682 123.902 13.682C124.463 13.682 124.905 14.141 124.905 14.685C124.905 15.246 124.463 15.705 123.902 15.705ZM123.171 26.5V17.932H124.616V26.5H123.171ZM126.548 17.932H128.163V16.878C128.163 15.059 129.336 13.75 131.206 13.75C131.988 13.75 132.617 13.971 133.093 14.243L132.447 15.45C132.124 15.212 131.733 15.059 131.24 15.059C130.271 15.059 129.625 15.722 129.625 16.844V17.932H132.6V19.241H129.625V26.5H128.163V19.241H126.548V17.932ZM135.091 15.705C134.53 15.705 134.071 15.246 134.071 14.685C134.071 14.141 134.53 13.682 135.091 13.682C135.652 13.682 136.094 14.141 136.094 14.685C136.094 15.246 135.652 15.705 135.091 15.705ZM134.36 26.5V17.932H135.805V26.5H134.36ZM146.475 25.089C145.676 26.16 144.401 26.84 142.803 26.84C139.913 26.84 138.128 24.715 138.128 22.216C138.128 19.615 139.794 17.592 142.446 17.592C144.775 17.592 146.288 19.224 146.288 21.332C146.288 21.672 146.237 21.995 146.186 22.233H139.607C139.658 24.29 140.967 25.531 142.803 25.531C143.908 25.531 144.843 25.021 145.404 24.256L146.475 25.089ZM142.412 18.816C141.001 18.816 140.015 19.649 139.709 21.128H144.843C144.792 19.87 143.925 18.816 142.412 18.816ZM148.737 26.5V17.932H150.182V19.003C150.811 18.255 151.593 17.762 152.681 17.762C152.953 17.762 153.208 17.796 153.412 17.864V19.275C153.157 19.207 152.902 19.173 152.562 19.173C151.44 19.173 150.709 19.751 150.182 20.618V26.5H148.737ZM162.405 26.738C160.722 26.738 159.583 25.803 159.583 24.341C159.583 23.049 160.569 22.131 162.388 21.825L165.278 21.349V20.754C165.278 19.564 164.428 18.884 163.204 18.884C162.218 18.884 161.419 19.343 160.892 20.074L159.804 19.241C160.552 18.221 161.759 17.592 163.255 17.592C165.431 17.592 166.723 18.867 166.723 20.754V26.5H165.278V25.412C164.632 26.245 163.51 26.738 162.405 26.738ZM161.045 24.29C161.045 25.021 161.64 25.548 162.643 25.548C163.782 25.548 164.717 25.004 165.278 24.086V22.403L162.745 22.828C161.572 23.032 161.045 23.559 161.045 24.29ZM168.247 17.932H169.811L172.548 24.987L175.285 17.932H176.849L173.5 26.5H171.596L168.247 17.932ZM186.103 25.089C185.304 26.16 184.029 26.84 182.431 26.84C179.541 26.84 177.756 24.715 177.756 22.216C177.756 19.615 179.422 17.592 182.074 17.592C184.403 17.592 185.916 19.224 185.916 21.332C185.916 21.672 185.865 21.995 185.814 22.233H179.235C179.286 24.29 180.595 25.531 182.431 25.531C183.536 25.531 184.471 25.021 185.032 24.256L186.103 25.089ZM182.04 18.816C180.629 18.816 179.643 19.649 179.337 21.128H184.471C184.42 19.87 183.553 18.816 182.04 18.816ZM192.276 25.48C193.33 25.48 194.197 24.97 194.724 24.222L195.863 25.089C195.064 26.16 193.823 26.84 192.259 26.84C189.42 26.84 187.601 24.715 187.601 22.216C187.601 19.717 189.42 17.592 192.259 17.592C193.806 17.592 195.064 18.289 195.863 19.343L194.724 20.21C194.197 19.462 193.33 18.952 192.259 18.952C190.423 18.952 189.114 20.397 189.114 22.216C189.114 24.052 190.423 25.48 192.276 25.48Z" fill="#F5F5FE"/>
<path d="M65.854 44.5V31.9H73.198V34.024H68.41V37.012H72.478V39.136H68.41V44.5H65.854ZM74.7547 44.5V35.428H77.0407V36.328C77.6347 35.716 78.4087 35.248 79.4347 35.248C79.7407 35.248 80.0107 35.302 80.2267 35.374V37.624C79.9387 37.552 79.6327 37.498 79.2187 37.498C78.1027 37.498 77.3827 38.11 77.0407 38.686V44.5H74.7547ZM84.1838 44.77C82.3658 44.77 81.1238 43.726 81.1238 42.052C81.1238 40.684 82.1858 39.658 84.1298 39.334L86.9018 38.866V38.632C86.9018 37.678 86.1818 37.066 85.1378 37.066C84.2558 37.066 83.5718 37.48 83.0858 38.146L81.4118 36.868C82.2218 35.752 83.5538 35.068 85.2098 35.068C87.8378 35.068 89.1878 36.634 89.1878 38.632V44.5H86.9018V43.618C86.3258 44.32 85.2458 44.77 84.1838 44.77ZM83.3918 41.944C83.3918 42.556 83.8778 42.952 84.6518 42.952C85.6958 42.952 86.4518 42.466 86.9018 41.746V40.468L84.7418 40.828C83.7878 40.99 83.3918 41.386 83.3918 41.944ZM91.8055 44.5V35.428H94.0915V36.148C94.7215 35.536 95.5675 35.068 96.7735 35.068C98.7355 35.068 100.302 36.418 100.302 39.1V44.5H97.9975V39.19C97.9975 37.984 97.3135 37.228 96.1975 37.228C95.0455 37.228 94.4335 38.002 94.0915 38.578V44.5H91.8055ZM107.253 42.7C108.153 42.7 108.873 42.286 109.305 41.656L111.087 43.024C110.241 44.14 108.909 44.86 107.253 44.86C104.121 44.86 102.249 42.61 102.249 39.964C102.249 37.318 104.121 35.068 107.253 35.068C108.909 35.068 110.241 35.788 111.087 36.904L109.305 38.272C108.873 37.642 108.153 37.228 107.217 37.228C105.723 37.228 104.625 38.38 104.625 39.964C104.625 41.566 105.723 42.7 107.253 42.7ZM120.794 43.024C119.948 44.158 118.544 44.86 116.834 44.86C113.612 44.86 111.794 42.61 111.794 39.964C111.794 37.282 113.486 35.068 116.456 35.068C118.976 35.068 120.632 36.778 120.632 39.154C120.632 39.658 120.56 40.126 120.488 40.432H114.134C114.35 42.124 115.394 42.808 116.816 42.808C117.806 42.808 118.67 42.376 119.156 41.728L120.794 43.024ZM116.402 36.94C115.232 36.94 114.458 37.588 114.206 38.776H118.382C118.346 37.858 117.68 36.94 116.402 36.94ZM128.898 42.466C130.338 42.466 131.472 41.764 132.192 40.738L134.208 42.286C133.056 43.852 131.184 44.86 128.898 44.86C124.92 44.86 122.202 41.8 122.202 38.2C122.202 34.6 124.92 31.54 128.898 31.54C131.184 31.54 133.056 32.566 134.208 34.096L132.192 35.662C131.472 34.636 130.338 33.934 128.898 33.934C126.522 33.934 124.83 35.788 124.83 38.2C124.83 40.612 126.522 42.466 128.898 42.466ZM140.264 35.068C143.216 35.068 145.232 37.246 145.232 39.964C145.232 42.682 143.216 44.86 140.264 44.86C137.312 44.86 135.296 42.682 135.296 39.964C135.296 37.246 137.312 35.068 140.264 35.068ZM140.3 42.7C141.758 42.7 142.856 41.53 142.856 39.964C142.856 38.38 141.758 37.228 140.3 37.228C138.788 37.228 137.672 38.38 137.672 39.964C137.672 41.548 138.788 42.7 140.3 42.7ZM147.317 44.5V35.428H149.603V36.148C150.233 35.536 151.079 35.068 152.285 35.068C154.247 35.068 155.813 36.418 155.813 39.1V44.5H153.509V39.19C153.509 37.984 152.825 37.228 151.709 37.228C150.557 37.228 149.945 38.002 149.603 38.578V44.5H147.317ZM158.409 44.5V35.428H160.695V36.148C161.325 35.536 162.171 35.068 163.377 35.068C165.339 35.068 166.905 36.418 166.905 39.1V44.5H164.601V39.19C164.601 37.984 163.917 37.228 162.801 37.228C161.649 37.228 161.037 38.002 160.695 38.578V44.5H158.409ZM177.853 43.024C177.007 44.158 175.603 44.86 173.893 44.86C170.671 44.86 168.853 42.61 168.853 39.964C168.853 37.282 170.545 35.068 173.515 35.068C176.035 35.068 177.691 36.778 177.691 39.154C177.691 39.658 177.619 40.126 177.547 40.432H171.193C171.409 42.124 172.453 42.808 173.875 42.808C174.865 42.808 175.729 42.376 176.215 41.728L177.853 43.024ZM173.461 36.94C172.291 36.94 171.517 37.588 171.265 38.776H175.441C175.405 37.858 174.739 36.94 173.461 36.94ZM184.21 42.7C185.11 42.7 185.83 42.286 186.262 41.656L188.044 43.024C187.198 44.14 185.866 44.86 184.21 44.86C181.078 44.86 179.206 42.61 179.206 39.964C179.206 37.318 181.078 35.068 184.21 35.068C185.866 35.068 187.198 35.788 188.044 36.904L186.262 38.272C185.83 37.642 185.11 37.228 184.174 37.228C182.68 37.228 181.582 38.38 181.582 39.964C181.582 41.566 182.68 42.7 184.21 42.7ZM190.415 41.188V37.48H188.723V35.428H190.415V33.16H192.719V35.428H195.491V37.48H192.719V41.188C192.719 42.196 193.259 42.592 194.159 42.592C194.789 42.592 195.203 42.52 195.509 42.394V44.392C195.059 44.59 194.519 44.68 193.763 44.68C191.495 44.68 190.415 43.402 190.415 41.188Z" fill="#F5F5FE"/>
</svg>
